<svg xmlns="http://www.w3.org/2000/svg" xmlns:xlink="http://www.w3.org/1999/xlink" id="Layer_1" x="0" y="0" enable-background="new 0 0 164 80" version="1.1" viewBox="0 0 164 80" xml:space="preserve"><path id="XMLID_119_" d="M15.5,66.9h-4.5v-6.2h4.5c1,0,3.6,0.1,3.6,3.1C19.1,64.4,18.6,66.9,15.5,66.9 M19.7,70.2	c2.4-1,4.5-2.6,4.5-6.3c0-6.3-5.5-7.4-8.7-7.4H5.8v22.9H11v-8.2h3.5l4.4,8.2h5.9L19.7,70.2z"/><g id="XMLID_122_"><path id="XMLID_123_" d="M33.6,65.4c2,0,3.3,1.5,3.4,3.3h-7C30.2,67.4,31.2,65.4,33.6,65.4 M42.1,71.9v-0.2c0-4.7-2.1-9.8-8.5-9.8 c-6.6,0-8.7,5.1-8.7,9.3c0,5.5,3.4,8.8,8.6,8.8c3.5,0,6.5-1.7,8.4-4.9l-3.8-1.9c-0.5,1.4-1.9,3-4.3,3c-2.3,0-3.9-1.8-3.9-4v-0.2 H42.1z"/></g><polygon id="XMLID_126_" points="52.9 62.4 50.1 73.9 47 62.4 41.8 62.4 47.3 79.4 52.5 79.4 58 62.4"/><rect id="XMLID_128_" width="5" height="4.4" x="59.4" y="54.7"/><rect id="XMLID_127_" width="5" height="16.9" x="59.4" y="62.4"/><g id="XMLID_129_"><path id="XMLID_130_" d="M75.1,65.4c2,0,3.3,1.5,3.4,3.3h-7C71.8,67.4,72.7,65.4,75.1,65.4 M83.7,71.9v-0.2c0-4.7-2.1-9.8-8.5-9.8 c-6.6,0-8.7,5.1-8.7,9.3c0,5.5,3.4,8.8,8.6,8.8c3.5,0,6.5-1.7,8.4-4.9l-3.8-1.9c-0.5,1.4-1.9,3-4.3,3c-2.3,0-3.9-1.8-3.9-4v-0.2 H83.7z"/></g><polygon id="XMLID_133_" points="103.7 62.4 101.1 74.3 98.8 62.4 93.5 62.4 91 74.3 88.7 62.4 83.4 62.4 88 79.4 93.5 79.4 96 68 98.5 79.4 103.8 79.4 108.8 62.4"/><path id="XMLID_134_" d="M164,34.2h-5.3l-2.8,12.1l-2.8-12.1h-5.3l4.9,15.9c0.3,0.8,0.4,1.2,0.4,1.6c0,0.6-0.3,1.2-1.8,1.2h-2.6v4	h4.2c1.5,0,2.5-0.2,3.5-1.3c0.9-0.9,1.3-2,1.7-3.2L164,34.2z"/><path id="XMLID_135_" d="M141.8,34.2v1.6c-0.9-0.9-2.2-1.8-4.7-1.8c-4.1,0-7,3.2-7,8.3c0,6.6,4.2,8.2,7,8.2c2.3,0,3.3-0.7,4.4-1.5	v2.3c0,1.9-1.1,2.7-3,2.7c-2.6,0-3.1-1.3-3.1-2.4h-5.2v0.2c0,3.7,3.2,5.5,7.7,5.5c5.5,0,8.4-2.1,8.4-6.5V34.2H141.8z M141.6,42.2	c0,1.7-0.2,4.4-3.1,4.4c-2.7,0-3.2-2.2-3.2-4.6c0-1.1,0.2-4.3,3-4.3C141.3,37.7,141.6,40,141.6,42.2"/><g id="XMLID_138_"><path id="XMLID_139_" d="M119.9,47.7c-2.9,0-4.1-2.2-4.1-5.1c0-3.5,2-5,3.9-5c2.7,0,4.3,1.6,4.3,5.2 C123.9,45.4,122.6,47.7,119.9,47.7 M119.6,33.7c-6.3,0-8.9,4.6-8.9,8.9c0,6.7,4.7,9.1,9.1,9.1c5.7,0,9.1-3.5,9.1-9 C128.9,38.6,126.8,33.7,119.6,33.7"/></g><rect id="XMLID_142_" width="5" height="22.9" x="104" y="28.2"/><path id="XMLID_143_" d="M93.2,47.7c-2.9,0-4.1-2.2-4.1-5.1c0-3.5,2-5,3.9-5c2.7,0,4.3,1.6,4.3,5.2C97.2,45.4,95.9,47.7,93.2,47.7 M92.9,33.7c-6.3,0-8.9,4.6-8.9,8.9c0,6.7,4.7,9.1,9.1,9.1c5.7,0,9.1-3.5,9.1-9C102.2,38.6,100,33.7,92.9,33.7"/><path id="XMLID_146_" d="M82.2,51.1V39c0-3.4-1.8-5.2-5.3-5.2c-2.4,0-4,0.9-4.8,1.9v-1.5h-5.1v17h5v-9.5c0-2.3,0.3-3.9,2.6-3.9	c2,0,2.5,1.3,2.5,2.9v10.5H82.2z"/><path id="XMLID_147_" d="M64.4,51.1V39.5c0-3.6-1.9-5.8-5.4-5.8c-1,0-3,0.2-4.8,2.3v-7.8h-5v22.9h5v-8.9c0-2.7,0.6-4.2,2.7-4.2	c2.5,0,2.6,2.2,2.6,4v9.2H64.4z"/><path id="XMLID_148_" d="M48.1,47.1l-3.8-1.9c-0.4,1.1-1.3,2.5-3.3,2.5c-2.8,0-3.8-3-3.8-5.1c0-2,0.9-5.1,3.6-5.1	c1.9,0,2.9,1.4,3.3,2.4l3.7-2.1c-2.4-3.8-5.7-4.1-7.2-4.1c-3.8,0-8.5,2.3-8.5,9.1c0,6.4,4.4,8.9,8.4,8.9	C43.1,51.7,46.1,50.5,48.1,47.1"/><polygon id="XMLID_149_" points="0 28.2 0 32.7 5.8 32.7 5.8 51.1 11 51.1 11 32.7 16.1 32.7 17.1 28.2"/><g id="XMLID_150_"><path id="XMLID_151_" d="M22.4,37.2c2,0,3.3,1.5,3.4,3.3h-7C19.1,39.2,20.1,37.2,22.4,37.2 M31,43.7v-0.2c0-4.7-2.1-9.8-8.5-9.8 c-6.6,0-8.7,5.1-8.7,9.3c0,5.5,3.4,8.8,8.6,8.8c3.5,0,6.5-1.7,8.4-4.9L27,44.9c-0.5,1.4-1.9,3-4.3,3c-2.3,0-3.9-1.8-3.9-4v-0.2H31z"/></g><g id="XMLID_154_"><path id="XMLID_155_" d="M28.5,22.9V0h-7.9l-3.4,16L13.6,0H5.8v22.9H11c0,0,0-13.9-0.1-17.1l4.1,17.1h4.4l4.1-17.1 c-0.1,4.5-0.1,17.1-0.1,17.1H28.5z"/></g><rect id="XMLID_156_" width="5" height="22.9" x="31.7" y="0"/><polygon id="XMLID_157_" points="38.2 0 38.2 4.5 44 4.5 44 22.9 49.1 22.9 49.1 4.5 54.9 4.5 54.9 0"/></svg>